<?xml version="1.0" encoding="UTF-8" standalone="no"?>
<!-- Created with Inkscape (http://www.inkscape.org/) -->

<svg
   xmlns:dc="http://purl.org/dc/elements/1.1/"
   xmlns:cc="http://creativecommons.org/ns#"
   xmlns:rdf="http://www.w3.org/1999/02/22-rdf-syntax-ns#"
   xmlns:svg="http://www.w3.org/2000/svg"
   xmlns="http://www.w3.org/2000/svg"
   xmlns:sodipodi="http://sodipodi.sourceforge.net/DTD/sodipodi-0.dtd"
   xmlns:inkscape="http://www.inkscape.org/namespaces/inkscape"
   width="47mm"
   height="40mm"
   viewBox="0 0 47 40"
   version="1.1"
   id="svg1263"
   inkscape:version="0.92.3 (2405546, 2018-03-11)"
   sodipodi:docname="light_logo.svg">
  <defs
     id="defs1257" />
  <sodipodi:namedview
     id="base"
     pagecolor="#ffffff"
     bordercolor="#666666"
     borderopacity="1.0"
     inkscape:pageopacity="0.0"
     inkscape:pageshadow="2"
     inkscape:zoom="0.35"
     inkscape:cx="-95.714286"
     inkscape:cy="560"
     inkscape:document-units="mm"
     inkscape:current-layer="layer1"
     showgrid="false"
     inkscape:window-width="1366"
     inkscape:window-height="705"
     inkscape:window-x="0"
     inkscape:window-y="30"
     inkscape:window-maximized="1" />
  <metadata
     id="metadata1260">
    <rdf:RDF>
      <cc:Work
         rdf:about="">
        <dc:format>image/svg+xml</dc:format>
        <dc:type
           rdf:resource="http://purl.org/dc/dcmitype/StillImage" />
        <dc:title></dc:title>
      </cc:Work>
    </rdf:RDF>
  </metadata>
  <g
     inkscape:label="Layer 1"
     inkscape:groupmode="layer"
     id="layer1"
     transform="translate(0,-257)">
    <path
       style="fill:#cccccc;stroke-width:0.0654724"
       d="m 1.7844151,295.70754 c 0.03684,-0.1532 0.364996,-2.70279 0.394267,-3.0627 l 0.01796,-0.21989 0.562907,-0.018 c 0.559208,-0.018 0.562909,-0.017 0.562909,0.13769 0,0.086 0.111347,0.48981 0.247465,0.8978 0.136092,0.40811 0.297303,0.91691 0.358213,1.13071 l 0.110746,0.3888 0.443492,-1.2835 0.4435,-1.2836 0.5288,-5.3e-4 0.528786,-5.3e-4 v 0.3109 c 0,0.3013 0.163494,2.2406 0.239935,2.846 l 0.03761,0.2985 h -0.403583 -0.403594 l -0.04151,-0.644 c -0.0228,-0.3542 -0.06162,-0.9974 -0.08632,-1.4293 -0.02512,-0.4398 -0.06633,-0.73 -0.09354,-0.6596 -0.06928,0.1789 -0.754886,2.0778 -0.878912,2.4344 -0.101918,0.2931 -0.108879,0.2985 -0.388516,0.2985 h -0.284751 l -0.451881,-1.2474 c -0.248546,-0.686 -0.451885,-1.3063 -0.451885,-1.3784 0,-0.072 -0.0261,-0.1461 -0.05824,-0.1643 -0.03207,-0.018 -0.0787,0.3971 -0.103815,0.923 -0.02505,0.5258 -0.06447,1.1611 -0.08763,1.4116 l -0.04203,0.4555 h -0.367159 c -0.345327,0 -0.365144,-0.01 -0.3332,-0.1414 z m 5.802386,-1.58629 v -1.7277 h 0.375459 0.375459 l 0.0042,1.7277 0.0042,1.7277 h -0.379131 -0.378612 v -1.7277 z m 2.251609,0 v -1.7277 h 0.3900429 0.39004 l -0.04262,1.4449 -0.04262,1.445 h 0.829628 0.829609 v 0.2827 0.2828 H 11.015489 9.8385151 Z m 3.4797829,0 v -1.7277 h 0.390042 0.390013 l -0.04262,1.4449 -0.04262,1.445 h 0.829607 0.82963 v 0.2827 0.2828 H 14.49525 13.318268 Z m 3.479771,0 v -1.7277 h 1.142865 1.142868 v 0.28269 0.2827 h -0.784654 -0.784656 v 0.4084 0.4083 h 0.648184 0.648208 v 0.2513 0.2513 h -0.648208 -0.648184 l 0.0013,0.36131 c 0.0023,0.6711 -0.03601,0.6439 0.894023,0.6439 h 0.810809 v 0.2827 0.2828 h -1.21114 -1.211104 z m 3.68447,0 v -1.7277 h 0.413807 c 0.39965,0 0.417424,0.01 0.519708,0.20409 0.05823,0.1123 0.336022,0.5293 0.617288,0.92671 0.28125,0.39739 0.592899,0.87089 0.692543,1.0523 0.09961,0.18149 0.191881,0.32989 0.205001,0.32989 0.01308,0 0.01317,-0.1909 1.46e-4,-0.4241 -0.01298,-0.23319 -0.03614,-0.7987 -0.05111,-1.25649 l -0.0275,-0.8324 h 0.333221 0.333208 v 1.7277 1.7277 h -0.324112 -0.324087 l -0.711944,-0.99431 c -0.391583,-0.54679 -0.792299,-1.14019 -0.890483,-1.3187 l -0.17854,-0.3244 0.02892,1.3236 0.02892,1.32361 h -0.332531 -0.332572 v -1.7277 z m 4.50324,0 v -1.7277 h 0.413807 c 0.399645,0 0.417413,0.01 0.51971,0.20409 0.05829,0.1123 0.336025,0.5293 0.617273,0.92671 0.281275,0.39739 0.592909,0.87089 0.692546,1.0523 0.09964,0.18149 0.191888,0.32989 0.205009,0.32989 0.01308,0 0.01317,-0.1909 1.38e-4,-0.4241 -0.01298,-0.23319 -0.03609,-0.7987 -0.05111,-1.25649 l -0.02744,-0.8324 h 0.333212 0.333202 v 1.7277 1.7277 h -0.3241 -0.324099 l -0.711945,-0.99431 c -0.391563,-0.54679 -0.792292,-1.14019 -0.890473,-1.3187 l -0.17855,-0.3244 0.029,1.3236 0.02891,1.32361 h -0.332572 -0.332578 v -1.7277 z m 4.571463,0 v -1.7277 h 0.375462 0.375462 l 0.0042,1.7277 0.0042,1.7277 h -0.378876 -0.37861 v -1.7277 z m 1.808117,1.66219 c 0,-0.036 0.291671,-0.7699 0.648187,-1.63079 0.356515,-0.86101 0.648203,-1.61021 0.648203,-1.6648 0,-0.084 0.08516,-0.097 0.545203,-0.081 l 0.545211,0.018 0.614719,1.65909 c 0.338093,0.9125 0.614715,1.68291 0.614715,1.712 0,0.029 -0.196258,0.053 -0.43611,0.053 -0.419495,0 -0.437796,-0.01 -0.4805,-0.1728 -0.02434,-0.095 -0.09,-0.3212 -0.145751,-0.5026 l -0.101383,-0.32979 h -0.678494 -0.678506 l -0.101359,0.3298 c -0.0557,0.1814 -0.121354,0.4076 -0.145772,0.5026 -0.0421,0.1643 -0.06405,0.1728 -0.446389,0.1728 -0.233202,0 -0.401974,-0.027 -0.401974,-0.065 z m 2.054892,-2.1645 c -0.135734,-0.3972 -0.262128,-0.72169 -0.280892,-0.721 -0.01873,5.3e-4 -0.145836,0.32561 -0.282382,0.7221 l -0.248272,0.72101 h 0.529153 0.529154 z m 2.687156,0.50231 v -1.7277 h 0.390033 0.390038 l -0.04262,1.4449 -0.04262,1.445 h 0.829614 0.829615 v 0.2827 0.2828 h -1.177026 -1.176983 z m 5.322009,0 v -1.7277 h 0.413803 c 0.399648,0 0.417422,0.01 0.519708,0.20409 0.05829,0.1123 0.336028,0.5293 0.617281,0.92671 0.28127,0.39739 0.592912,0.87089 0.692541,1.0523 0.09964,0.18149 0.191894,0.32989 0.205005,0.32989 0.01307,0 0.01318,-0.1909 1.42e-4,-0.4241 -0.01299,-0.23319 -0.03608,-0.7987 -0.05111,-1.25649 l -0.02743,-0.8324 h 0.333208 0.333208 v 1.7277 1.7277 H 44.14156 43.817461 l -0.711941,-0.99431 c -0.391567,-0.54679 -0.792289,-1.14019 -0.890479,-1.3187 l -0.178541,-0.3244 0.02896,1.3236 0.02892,1.32361 h -0.332558 -0.332578 v -1.7277 z M 1.9847781,289.03674 c -0.263202,-0.1055 -0.478233,-0.3763 -0.540152,-0.68019 -0.04142,-0.2032 0.245647,-0.973 2.318168,-6.21761 1.808322,-4.5761 2.424671,-6.0663 2.61708,-6.3273 0.324465,-0.4403 0.927689,-0.8477 1.493552,-1.0086 0.382036,-0.1087 0.634516,-0.1263 1.804986,-0.1263 1.7268999,0 1.7922189,0.025 2.1250359,0.8167 0.09442,0.2246 0.810678,2.0264 1.591699,4.004 0.781024,1.9777 1.441434,3.5605 1.467597,3.5174 0.02606,-0.043 1.280601,-3.2019 2.787635,-7.0196 1.507036,-3.8178 2.798776,-7.0644 2.870514,-7.2146 0.334515,-0.7008 0.978049,-1.2325 1.764648,-1.4579 0.363311,-0.1041 0.6305,-0.1222 1.802153,-0.122 1.623481,2e-4 1.72082,0.029 1.984398,0.5825 0.08592,0.1805 1.487587,3.6982 3.1148,7.817 1.627206,4.1188 2.970083,7.4781 2.984185,7.4651 0.06699,-0.062 6.27085,-15.8394 6.244296,-15.8806 -0.01667,-0.026 -0.553103,-0.047 -1.191971,-0.047 -0.638879,0 -1.151356,-0.024 -1.138846,-0.054 0.01246,-0.03 1.864971,-2.0762 4.116585,-4.5479 3.03801,-3.335 4.105868,-4.4674 4.140409,-4.391 0.02556,0.057 0.294929,2.0397 0.598533,4.4067 0.303591,2.3669 0.567063,4.3664 0.585483,4.4434 l 0.03342,0.1398 -1.172141,0.017 -1.172139,0.017 -4.047808,10.2392 c -4.26217,10.7814 -4.210486,10.6619 -4.792093,11.0836 -0.352063,0.2552 -0.871273,0.4823 -1.290146,0.5641 -0.198874,0.039 -0.91395,0.071 -1.589087,0.071 -1.094864,0 -1.256575,-0.014 -1.49633,-0.1262 -0.147823,-0.069 -0.313746,-0.2064 -0.368707,-0.3042 -0.05496,-0.098 -1.437799,-3.5679 -3.072984,-7.7112 -1.635197,-4.1433 -2.991593,-7.5757 -3.014203,-7.6276 -0.02978,-0.068 -0.06565,-0.041 -0.1306,0.099 -0.04927,0.1063 -1.322208,3.3151 -2.828867,7.1307 -1.506655,3.8156 -2.817961,7.0623 -2.913969,7.2149 -0.385182,0.612 -1.131653,1.1006 -1.915905,1.2539 -0.198863,0.039 -0.920878,0.071 -1.604486,0.071 -1.378491,0 -1.603216,-0.051 -1.832473,-0.41539 -0.06281,-0.10001 -0.795148,-1.906 -1.627539,-4.01381 -0.8324149,-2.1078 -1.5359169,-3.8699 -1.5633419,-3.9158 -0.02939,-0.049 -0.573816,1.2501 -1.329094,3.1726 -0.703583,1.791 -1.384645,3.459 -1.513474,3.70681 -0.376037,0.7234 -1.128365,1.25109 -1.998329,1.4019 -0.542615,0.094 -2.043264,0.077 -2.300548,-0.026 z"
       id="path1555"
       inkscape:connector-curvature="0" />
  </g>
</svg>
