<?xml version="1.0" encoding="UTF-8" standalone="no"?>
<!-- Created with Inkscape (http://www.inkscape.org/) -->

<svg
   xmlns:dc="http://purl.org/dc/elements/1.1/"
   xmlns:cc="http://creativecommons.org/ns#"
   xmlns:rdf="http://www.w3.org/1999/02/22-rdf-syntax-ns#"
   xmlns:svg="http://www.w3.org/2000/svg"
   xmlns="http://www.w3.org/2000/svg"
   xmlns:sodipodi="http://sodipodi.sourceforge.net/DTD/sodipodi-0.dtd"
   xmlns:inkscape="http://www.inkscape.org/namespaces/inkscape"
   width="81"
   height="88"
   viewBox="0 0 21.431239 23.28332"
   version="1.1"
   id="svg6284"
   inkscape:version="0.92.3 (2405546, 2018-03-11)"
   sodipodi:docname="main-ig.svg">
  <defs
     id="defs6278" />
  <sodipodi:namedview
     id="base"
     pagecolor="#ffffff"
     bordercolor="#666666"
     borderopacity="1.0"
     inkscape:pageopacity="0.0"
     inkscape:pageshadow="2"
     inkscape:zoom="0.35"
     inkscape:cx="-95.714286"
     inkscape:cy="560"
     inkscape:document-units="mm"
     inkscape:current-layer="layer1"
     showgrid="false"
     units="px"
     width="49px"
     inkscape:window-width="1366"
     inkscape:window-height="705"
     inkscape:window-x="0"
     inkscape:window-y="30"
     inkscape:window-maximized="1" />
  <metadata
     id="metadata6281">
    <rdf:RDF>
      <cc:Work
         rdf:about="">
        <dc:format>image/svg+xml</dc:format>
        <dc:type
           rdf:resource="http://purl.org/dc/dcmitype/StillImage" />
        <dc:title></dc:title>
      </cc:Work>
    </rdf:RDF>
  </metadata>
  <g
     inkscape:label="Layer 1"
     inkscape:groupmode="layer"
     id="layer1"
     transform="translate(0,-273.7168)">
    <path
       style="fill:#808080;stroke-width:1.14529335"
       inkscape:connector-curvature="0"
       d="m 10.810409,274.83799 c -4.19337,0 -8.17538,-0.3669 -9.69636,3.4721 -0.62823997,1.5856 -0.53701997,3.6448 -0.53701997,6.5933 0,2.5873 -0.0844,5.019 0.53701997,6.5921 1.51752,3.8412 5.53187,3.4732 9.69405,3.4732 4.01548,0 8.1557,0.4112 9.69513,-3.4732 0.62941,-1.6015 0.53702,-3.63 0.53702,-6.5921 0,-3.9321 0.22058,-6.4706 -1.71845,-8.3765 -1.96328,-1.9308 -4.61832,-1.6889 -8.51601,-1.6889 z m -0.9169797,1.8139 c 8.7469997,-0.014 9.8602997,-0.97 9.2459097,12.3153 -0.21828,4.6988 -3.85612,4.1831 -8.32778,4.1831 -8.15343,0 -8.38788,-0.2294 -8.38788,-8.2515 0,-8.1152 0.64673,-8.2424 7.4697503,-8.2492 z m 6.3795097,1.6707 c -0.67791,0 -1.22762,0.5406 -1.22762,1.2073 0,0.6668 0.54971,1.2074 1.22762,1.2074 0.67791,0 1.22764,-0.5406 1.22764,-1.2074 0,-0.6667 -0.54973,-1.2073 -1.22764,-1.2073 z m -5.46253,1.4118 c -2.90221,0 -5.2547,2.3147 -5.2547,5.169 0,2.8542 2.35249,5.1678 5.2547,5.1678 2.90219,0 5.25351,-2.3136 5.25351,-5.1678 0,-2.8543 -2.35132,-5.169 -5.25351,-5.169 z m 0,1.8139 c 4.50977,0 4.51554,6.7102 0,6.7102 -4.50865,0 -4.51558,-6.7102 0,-6.7102 z"
       id="path852" />
  </g>
</svg>
