<?xml version="1.0" encoding="UTF-8" standalone="no"?>
<!-- Created with Inkscape (http://www.inkscape.org/) -->

<svg
   xmlns:dc="http://purl.org/dc/elements/1.1/"
   xmlns:cc="http://creativecommons.org/ns#"
   xmlns:rdf="http://www.w3.org/1999/02/22-rdf-syntax-ns#"
   xmlns:svg="http://www.w3.org/2000/svg"
   xmlns="http://www.w3.org/2000/svg"
   xmlns:sodipodi="http://sodipodi.sourceforge.net/DTD/sodipodi-0.dtd"
   xmlns:inkscape="http://www.inkscape.org/namespaces/inkscape"
   width="119mm"
   height="106mm"
   viewBox="0 0 119 106"
   version="1.1"
   id="svg1265"
   inkscape:version="0.92.3 (2405546, 2018-03-11)"
   sodipodi:docname="web-icon.svg">
  <defs
     id="defs1259" />
  <sodipodi:namedview
     id="base"
     pagecolor="#ffffff"
     bordercolor="#666666"
     borderopacity="1.0"
     inkscape:pageopacity="0.0"
     inkscape:pageshadow="2"
     inkscape:zoom="0.35"
     inkscape:cx="-401.42857"
     inkscape:cy="560"
     inkscape:document-units="mm"
     inkscape:current-layer="layer1"
     showgrid="false"
     inkscape:window-width="1366"
     inkscape:window-height="705"
     inkscape:window-x="0"
     inkscape:window-y="30"
     inkscape:window-maximized="1" />
  <metadata
     id="metadata1262">
    <rdf:RDF>
      <cc:Work
         rdf:about="">
        <dc:format>image/svg+xml</dc:format>
        <dc:type
           rdf:resource="http://purl.org/dc/dcmitype/StillImage" />
        <dc:title></dc:title>
      </cc:Work>
    </rdf:RDF>
  </metadata>
  <g
     inkscape:label="Layer 1"
     inkscape:groupmode="layer"
     id="layer1"
     transform="translate(0,-191)">
    <g
       transform="matrix(1,0,0,1.0202224,-43.408212,1440.7712)"
       id="g2152">
      <g
         transform="translate(-11.377087,-750.78764)"
         id="g1271">
        <ellipse
           style="opacity:1;fill:#333333;fill-opacity:1;stroke:none;stroke-width:0.26499999;stroke-linecap:round;stroke-linejoin:bevel;stroke-miterlimit:4;stroke-dasharray:none;stroke-opacity:1;paint-order:fill markers stroke"
           id="path1263"
           cx="114.2853"
           cy="-422.78024"
           rx="56.958912"
           ry="50.711807" />
        <ellipse
           style="opacity:1;fill:#b3b3b3;fill-opacity:1;stroke:none;stroke-width:0.36312908;stroke-linecap:round;stroke-linejoin:bevel;stroke-miterlimit:4;stroke-dasharray:none;stroke-opacity:1;paint-order:fill markers stroke"
           id="path1267"
           ry="45.202999"
           rx="56.913445"
           cy="-422.78024"
           cx="114.23983" />
      </g>
      <g
         transform="matrix(1,0,0,0.76966187,-11.377088,-848.16985)"
         id="g1277">
        <ellipse
           ry="50.711807"
           rx="56.958912"
           cy="-422.78024"
           cx="114.2853"
           id="ellipse1273"
           style="opacity:1;fill:#333333;fill-opacity:1;stroke:none;stroke-width:0.26499999;stroke-linecap:round;stroke-linejoin:bevel;stroke-miterlimit:4;stroke-dasharray:none;stroke-opacity:1;paint-order:fill markers stroke" />
        <ellipse
           cx="114.23983"
           cy="-422.78024"
           rx="56.913445"
           ry="45.202999"
           id="ellipse1275"
           style="opacity:1;fill:#b3b3b3;fill-opacity:1;stroke:none;stroke-width:0.36312908;stroke-linecap:round;stroke-linejoin:bevel;stroke-miterlimit:4;stroke-dasharray:none;stroke-opacity:1;paint-order:fill markers stroke" />
      </g>
      <g
         id="g1283"
         transform="matrix(1,0,0,0.57928989,-11.377088,-928.65536)">
        <ellipse
           style="opacity:1;fill:#333333;fill-opacity:1;stroke:none;stroke-width:0.26499999;stroke-linecap:round;stroke-linejoin:bevel;stroke-miterlimit:4;stroke-dasharray:none;stroke-opacity:1;paint-order:fill markers stroke"
           id="ellipse1279"
           cx="114.2853"
           cy="-422.78024"
           rx="56.958912"
           ry="50.711807" />
        <ellipse
           style="opacity:1;fill:#b3b3b3;fill-opacity:1;stroke:none;stroke-width:0.36312908;stroke-linecap:round;stroke-linejoin:bevel;stroke-miterlimit:4;stroke-dasharray:none;stroke-opacity:1;paint-order:fill markers stroke"
           id="ellipse1281"
           ry="45.202999"
           rx="56.913445"
           cy="-422.78024"
           cx="114.23983" />
      </g>
      <g
         transform="matrix(1,0,0,0.3264369,-11.377088,-1035.5561)"
         id="g1289">
        <ellipse
           ry="50.711807"
           rx="56.958912"
           cy="-422.78024"
           cx="114.2853"
           id="ellipse1285"
           style="opacity:1;fill:#333333;fill-opacity:1;stroke:none;stroke-width:0.26499999;stroke-linecap:round;stroke-linejoin:bevel;stroke-miterlimit:4;stroke-dasharray:none;stroke-opacity:1;paint-order:fill markers stroke" />
        <ellipse
           cx="114.23983"
           cy="-422.78024"
           rx="56.913445"
           ry="45.202999"
           id="ellipse1287"
           style="opacity:1;fill:#b3b3b3;fill-opacity:1;stroke:none;stroke-width:0.36312908;stroke-linecap:round;stroke-linejoin:bevel;stroke-miterlimit:4;stroke-dasharray:none;stroke-opacity:1;paint-order:fill markers stroke" />
      </g>
      <path
         inkscape:connector-curvature="0"
         id="ellipse1291"
         d="m 139.66123,-1169.7171 a 50.815864,37.571826 89.056461 0 0 -35.02655,-54.517 33.511648,50.74312 0.4019913 0 1 30.95529,54.0584 33.511648,50.74312 0.4019913 0 1 -35.888567,47.1941 33.511648,50.74312 0.4019913 0 1 -30.955321,-54.0578 33.511648,50.74312 0.4019913 0 1 35.888598,-47.1947 50.815864,37.571826 89.056461 0 0 -39.963046,46.817 50.815864,37.571826 89.056461 0 0 35.025689,54.5165 50.815864,37.571826 89.056461 0 0 39.963907,-46.8165 z"
         style="opacity:0.98999999;fill:#333333;fill-opacity:1;stroke:none;stroke-width:0.21544744;stroke-linecap:round;stroke-linejoin:bevel;stroke-miterlimit:4;stroke-dasharray:none;stroke-opacity:1;paint-order:fill markers stroke" />
      <path
         style="opacity:1;fill:#333333;fill-opacity:1;stroke:none;stroke-width:0.14023799;stroke-linecap:round;stroke-linejoin:bevel;stroke-miterlimit:4;stroke-dasharray:none;stroke-opacity:1;paint-order:fill markers stroke"
         d="m 118.40334,-1169.7171 a 50.813025,15.919714 89.799062 0 0 -14.84043,-54.517 14.198732,50.742486 0.10419215 0 1 13.11555,54.0584 14.198732,50.742486 0.10419215 0 1 -15.20584,47.1941 14.198732,50.742486 0.10419215 0 1 -13.11548,-54.0578 14.198732,50.742486 0.10419215 0 1 15.20577,-47.1947 50.813025,15.919714 89.799062 0 0 -16.932064,46.817 50.813025,15.919714 89.799062 0 0 14.840124,54.5165 50.813025,15.919714 89.799062 0 0 16.93237,-46.8165 z"
         id="path1303"
         inkscape:connector-curvature="0" />
    </g>
  </g>
</svg>
